<svg width="100" height="128" viewBox="0 0 100 128" fill="none" xmlns="http://www.w3.org/2000/svg">
<path fill-rule="evenodd" clip-rule="evenodd" d="M2.5 2.5098V125.49H97.5V2.5098H2.5ZM1 0C0.447715 0 0 0.449471 0 1.00392V126.996C0 127.551 0.447714 128 0.999999 128H99C99.5523 128 100 127.551 100 126.996V1.00392C100 0.449471 99.5523 0 99 0H1ZM32.045 53.8052L37.995 47.9021C38.275 47.5859 38.135 47.1291 37.715 47.1291H34.88C34.705 47.1291 34.425 47.3048 34.075 47.6562L28.545 53.2078V37.642C28.545 37.3609 28.3 37.115 28.055 37.115H25.43C25.115 37.115 24.975 37.2907 24.975 37.642V61.5002C24.975 61.8165 25.115 61.9922 25.43 61.9922H28.055C28.3 61.9922 28.545 61.7813 28.545 61.5002V54.6133L34.6 61.5002C34.915 61.8165 35.23 61.9922 35.545 61.9922H38.38C38.765 61.9922 38.905 61.5705 38.66 61.2894L32.045 53.8052ZM51.4473 43.1235C52.2523 42.3153 52.2523 41.0504 51.4473 40.2071C50.6073 39.3989 49.3473 39.3989 48.5423 40.2071C47.7023 41.0504 47.7023 42.3153 48.5423 43.1235C49.3473 43.9316 50.6073 43.9316 51.4473 43.1235ZM51.2723 61.9922C51.5873 61.9922 51.7623 61.8165 51.7623 61.5002V47.6562C51.7623 47.3048 51.5873 47.1291 51.2723 47.1291H48.6823C48.3673 47.1291 48.1923 47.3048 48.1923 47.6562V61.5002C48.1923 61.8165 48.3673 61.9922 48.6823 61.9922H51.2723ZM71.5821 61.9922C71.3021 61.9922 71.0571 61.8165 70.8471 61.5002L68.0121 57.3892L65.2121 61.5002C64.9671 61.8165 64.7221 61.9922 64.4071 61.9922H62.0271C61.7121 61.9922 61.4671 61.6056 61.7121 61.184L66.1571 54.6485L61.6071 47.9373C61.3621 47.5156 61.5721 47.1291 61.9571 47.1291H64.3721C64.6521 47.1291 64.8971 47.3048 65.1071 47.6562L68.0121 51.9078L70.9171 47.6562C71.1271 47.3048 71.3721 47.1291 71.6521 47.1291H74.0671C74.4521 47.1291 74.6621 47.5507 74.4171 47.9373L69.8671 54.6485L74.3471 61.2191C74.5921 61.5002 74.4521 61.9922 73.9971 61.9922H71.5821ZM70.7202 70.7865C69.7329 70.7865 68.9325 71.5869 68.9325 72.5742V76.1208H68.355C67.5613 76.1208 66.918 76.7642 66.918 77.5578C66.918 78.3515 67.5613 78.9948 68.355 78.9948H68.9325V89.1927C68.9325 90.18 69.7329 90.9804 70.7202 90.9804C71.7075 90.9804 72.5078 90.18 72.5078 89.1927V78.9948H73.0854C73.879 78.9948 74.5224 78.3515 74.5224 77.5578C74.5224 76.7642 73.879 76.1208 73.0854 76.1208H72.5078V72.5742C72.5078 71.5869 71.7075 70.7865 70.7202 70.7865ZM35.93 76.8201C36.07 76.4336 36.28 76.2579 36.56 76.2579H38.45C38.765 76.2579 38.905 76.4336 38.905 76.785V90.4533C38.905 90.8047 38.765 90.9804 38.45 90.9804H36.595C36.28 90.9804 36.035 90.7696 35.93 90.3831L35.685 89.1884C34.705 90.5587 33.27 91.2264 31.38 91.2615C29.035 91.2966 27.285 90.5587 26.095 89.083C24.87 87.6424 24.275 85.8152 24.275 83.6016C24.275 81.3879 24.905 79.5257 26.13 78.0499C27.355 76.5741 29.105 75.8362 31.45 75.8362C32.85 75.8362 33.865 76.1525 34.565 76.6444C34.985 76.9255 35.475 77.2769 35.685 77.4877L35.93 76.8201ZM27.705 83.5664C27.705 86.3423 29.07 88.4856 31.835 88.4856C34.25 88.4856 35.475 86.8342 35.475 83.5313C35.475 79.9122 34.145 78.6121 31.905 78.6121C29.105 78.6121 27.705 80.7906 27.705 83.5664ZM56.1103 75.8362C57.1253 75.8362 57.9303 76.0119 58.5603 76.3984C58.8403 76.539 58.7703 76.8552 58.7353 76.8904L57.7203 78.8932C57.5453 79.1391 57.3703 79.1743 57.1253 79.0337C56.6003 78.7175 56.0403 78.577 55.4453 78.577C53.6603 78.577 52.6103 80.2284 52.6103 82.2312V90.4885C52.6103 90.7696 52.3653 90.9804 52.1203 90.9804H49.5303C49.2153 90.9804 49.0403 90.8047 49.0403 90.4885V76.785C49.0403 76.4336 49.2153 76.2579 49.5303 76.2579H51.1053C51.4203 76.2579 51.6653 76.4687 51.8053 76.8904L52.1553 77.9796C53.2053 76.539 54.5353 75.8362 56.1103 75.8362ZM8.75 117.961V10.0392H91.25V117.961H8.75ZM6.25 8.53333C6.25 7.97888 6.69772 7.52941 7.25 7.52941H92.75C93.3023 7.52941 93.75 7.97888 93.75 8.53333V119.467C93.75 120.021 93.3023 120.471 92.75 120.471H7.25C6.69772 120.471 6.25 120.021 6.25 119.467V8.53333Z" fill="black"/>
</svg>
